<svg xmlns="http://www.w3.org/2000/svg" width="194" height="239" fill="none" viewBox="0 0 194 239">
    <mask id="prefix__a" width="194" height="193" x="0" y="0" maskUnits="userSpaceOnUse">
        <path fill="#fff" fill-rule="evenodd" d="M0 0H193.18v192.613H0V0z" clip-rule="evenodd"/>
    </mask>
    <g fill-rule="evenodd" clip-rule="evenodd" mask="url(#prefix__a)">
        <path fill="#000" d="M104.738 182.528c-.53.338-3.936.378-4.558.48h-5.895c-.622-.102-4.566-.139-5.096-.478-42.851-3.538-77.683-40.118-78.869-82.828C9.082 55.08 41.175 16.303 84.233 10.458c2.09-.284 4.333-.505 6.452-.575h11.256c30.356-.012 63.173 23.28 75.725 54.66 21.342 53.356-15.8 113.444-72.928 117.985zm88.128-94.783c-.542-5.106-1.466-7.858-2.248-11.693-10.294-50.46-60.084-83.703-111.55-74.531-50.764 9.047-86.11 58.655-77.876 109.298 11.252 69.21 88.262 104.11 147.292 66.278 26.172-16.774 42.118-41.465 44.575-72.879.349-6.616-.174-9.514-.153-15.686.001-.26-.012-.528-.04-.787z"/>
        <path fill="#59E37C" d="M105.748 96.36c-.067 4.677-3.809 8.267-8.591 8.24-4.672-.025-8.402-3.823-8.336-8.485.067-4.677 3.874-8.333 8.576-8.236 4.781.098 8.417 3.792 8.351 8.48z"/>
    </g>
    <path fill="#000" fill-rule="evenodd" d="M134.15 149.303c-1.518 1.143-3.199 2.089-4.874 3.001-3.719 2.023-7.072 1.59-9.361-2.142-2.36-3.85-.734-6.877 2.592-9.271 1.895-1.363 3.876-2.609 5.733-4.019 25.225-19.147 26.743-57.642 3.101-78.72-2.548-2.27-5.256-4.331-8.871-4.584l-1.922-.27c-1.368-.091-1.608 0-3.216 0-1.072 0-1.465.021-1.715.105l-.762.205c-12.973 3.914-16.703 17.513-7.375 27.364 3.068 3.24 6.636 6.094 7.427 10.778.281 1.748.817 4.963.04 9.083-2.536 8.43-8.259 13.147-16.957 13.811-7.526.575-14.535-4.141-17.57-11.211-3.264-7.604-1.53-14.816 5.788-21.594 5.21-4.827 7.107-10.563 5.234-17.167-1.707-6.021-5.46-10.46-12.303-11.147-2.006-.227-3.614-.227-6.426 0-8.51 1.173-13.08 7.699-17.378 13.825-16.538 23.583-10.11 55.768 13.935 71.717.884.586 1.821 1.094 2.694 1.696 3.503 2.413 4.6 5.748 2.489 9.38-2.197 3.776-5.84 4.021-9.445 2.072-7.786-4.212-14.093-10.218-19.404-17.195-15.785-20.736-17.066-50.171-3.316-72.49 13.573-22.03 40.256-34.318 64.963-29.914 27.277 4.861 48.383 24.615 53.179 50.858 4.974 27.214-4.209 49.208-26.28 65.829zm34.996-69.294c-6.845-30.9-31.813-53.592-63.448-57.692-.16-.02-.316-.05-.473-.088-6.023-1.438-16.595-.017-16.595-.017-22.097 2.656-39.714 13.018-52.617 31.1C10.996 88.374 22.134 138.7 59.511 160.08c8 4.577 17.057 2.796 22.064-4.336 5.306-7.562 3.879-16.506-3.681-22.596-1.648-1.327-3.499-2.399-5.23-3.625-21.465-15.217-23.406-46.738-3.967-64.371 3.454-3.134 7.309-5.073 11.178-1.12 3.876 3.96 2.136 7.462-1.58 10.824-4.808 4.35-8.425 9.627-8.666 16.498-.51 3.852-.536 4.824.1 10.081 2.593 14.149 14.496 22.979 29.626 21.983 13.209-.87 24.249-12.019 25.146-25.29.65-9.606-2.877-17.42-9.945-23.76-2.642-2.369-3.781-5.165-2.268-8.532 1.138-2.529 3.254-3.883 6.091-3.828 2.778.052 4.662 1.844 6.547 3.571 20.379 18.681 16.955 49.742-7.272 66.025-8.842 5.942-11.474 15.804-6.284 23.558 5.436 8.124 14.924 9.678 24.064 3.942 27.247-17.099 40.538-48.282 33.712-79.095z" clip-rule="evenodd"/>
    <mask id="prefix__b" width="26" height="32" x="0" y="207" maskUnits="userSpaceOnUse">
        <path fill="#fff" fill-rule="evenodd" d="M0 207.806h25.715v30.885H0v-30.885z" clip-rule="evenodd"/>
    </mask>
    <g mask="url(#prefix__b)">
        <path fill="#000" fill-rule="evenodd" d="M15.12 221.124l10.422 15.94c.457.7-.045 1.627-.88 1.627h-6.445c-.355 0-.685-.178-.88-.475l-6.951-10.619c-.384-.586-1.223-.64-1.679-.108l-.953 1.112c-.163.191-.253.433-.253.684v8.355c0 .58-.471 1.051-1.052 1.051H1.052c-.58 0-1.052-.471-1.052-1.051v-28.65c0-.581.471-1.051 1.052-1.051h5.397c.58 0 1.052.47 1.052 1.051v5.432c0 .98 1.22 1.427 1.854.68l5.86-6.924c.2-.236.494-.372.803-.372h7.09c.894 0 1.38 1.046.804 1.73l-8.715 10.335c-.3.354-.33.864-.076 1.253z" clip-rule="evenodd"/>
    </g>
    <path fill="#000" fill-rule="evenodd" d="M41.773 207.85h22.032c.58 0 1.051.471 1.051 1.052v5.442c0 .58-.47 1.051-1.051 1.051H49.274c-.58 0-1.052.471-1.052 1.052v2c0 .58.471 1.052 1.052 1.052h10.913c.58 0 1.051.47 1.051 1.051v5.397c0 .581-.47 1.052-1.051 1.052H49.274c-.58 0-1.052.471-1.052 1.052v2c0 .58.471 1.051 1.052 1.051h14.53c.582 0 1.052.471 1.052 1.052v5.397c0 .581-.47 1.052-1.051 1.052H41.773c-.58 0-1.051-.471-1.051-1.052v-28.649c0-.581.47-1.052 1.051-1.052zM102.085 207.939h5.398c.58 0 1.051.47 1.051 1.051v28.65c0 .581-.471 1.051-1.051 1.051h-6.589c-.354 0-.684-.177-.878-.473l-9.848-14.951c-.574-.872-1.93-.465-1.93.578v13.706c0 .581-.47 1.052-1.052 1.052H81.79c-.58 0-1.051-.471-1.051-1.052v-28.693c0-.581.47-1.052 1.051-1.052h6.633c.354 0 .684.178.878.473l9.804 14.867c.574.871 1.929.465 1.929-.579V208.99c0-.581.471-1.051 1.052-1.051zM139.329 207.806h7.501v18.979c0 6.405-5.241 11.803-11.644 11.684-6.21-.116-11.211-5.188-11.211-11.426v-.495c0-.75.608-1.358 1.358-1.358h4.784c.75 0 1.358.608 1.358 1.358v.352c0 2.088 1.568 3.916 3.651 4.061 2.286.157 4.203-1.665 4.203-3.918v-19.237z" clip-rule="evenodd"/>
    <mask id="prefix__c" width="32" height="32" x="162" y="207" maskUnits="userSpaceOnUse">
        <path fill="#fff" fill-rule="evenodd" d="M162.27 207.409h31.591V239H162.27v-31.591z" clip-rule="evenodd"/>
    </mask>
    <g mask="url(#prefix__c)">
        <path fill="#000" fill-rule="evenodd" d="M186.361 223.205c0-4.589-3.707-8.295-8.295-8.295-4.545 0-8.295 3.706-8.295 8.295 0 4.588 3.75 8.295 8.295 8.295 4.588 0 8.295-3.707 8.295-8.295zm7.5 0c0 8.735-7.059 15.795-15.795 15.795-8.692 0-15.796-7.06-15.796-15.795 0-8.692 7.104-15.796 15.796-15.796 8.736 0 15.795 7.104 15.795 15.796z" clip-rule="evenodd"/>
    </g>
</svg>
